<?xml version="1.0" encoding="UTF-8"?>
<svg width="215px" height="288px" viewBox="0 0 215 288" version="1.1" xmlns="http://www.w3.org/2000/svg" xmlns:xlink="http://www.w3.org/1999/xlink">
    <!-- Generator: Sketch 43.2 (39069) - http://www.bohemiancoding.com/sketch -->
    <title>logo</title>
    <desc>Created with Sketch.</desc>
    <defs>
        <path d="M3.12250226e-13,91.5036687 C6.39737808,39.9231385 50.3850517,0 103.697274,0 C156.758808,0 200.58328,39.5485628 207.301811,90.7768086 L151.33282,90.202858 L151.424743,137.034516 L102.764036,65.982106 L52.5806938,137.87833 L53.0685972,93.7831735 L49.629703,90.643621 L3.12638804e-13,91.5036687 Z" id="path-1"></path>
    </defs>
    <g id="Web" stroke="none" stroke-width="1" fill="none" fill-rule="evenodd">
        <g id="Web-Copy" transform="translate(-613.000000, -158.000000)">
            <g id="logo" transform="translate(613.000000, 158.000000)">
                <g>
                    <g id="Path-2" transform="translate(4.603352, 2.402235)">
                        <mask id="mask-2" fill="white">
                            <use xlink:href="#path-1"></use>
                        </mask>
                        <use id="Mask" fill="#D17795" xlink:href="#path-1"></use>
                        <polygon id="Polygon-2" fill-opacity="0.3" fill="#FFFFFF" mask="url(#mask-2)" points="102.997923 -20 118.794824 -19.1284607 102.997923 123.488435 149.623942 -12.2194935 164.281935 -6.26593123 178.196023 1.26399673 102.499321 123.488435 203.127972 20.6693117 213.843193 32.3091444 223.212903 45.0570936 102.499321 123.488435 237.478558 73.2467975 242.201339 88.3463674 245.234378 103.873838 102.997923 123.488435 -39.2385321 103.873838 -36.2054926 88.3463674 -31.4827122 73.2467975 102.997923 123.488435 -17.2170566 45.0570936 -7.84734718 32.3091444 2.8678737 20.6693117 102.499321 123.488435 27.7998228 1.26399673 41.713911 -6.26593123 56.3719041 -12.2194935 102.499321 123.488435 87.2010219 -19.1284607"></polygon>
                    </g>
                    <g id="witch-logo-green" fill="#3C3C3C">
                        <path d="M104.633333,44.4333333 L96.0333333,44.4333333 L96.0333333,38.7 L104.633333,38.7 L104.633333,30.1 L110.366667,30.1 L110.366667,38.7 L118.966667,38.7 L118.966667,44.4333333 L110.366667,44.4333333 L110.366667,61.597982 L150.563723,121.833333 L150.520725,86 L205.52438,86 C195.682107,40.9190579 155.5327,7.16666667 107.5,7.16666667 C59.4672999,7.16666667 19.3178931,40.9190579 9.47562002,86 L64.5207245,86 L64.7930614,121.833333 L104.633333,61.6920256 L104.633333,44.4333333 Z M192.305556,97.4666667 L186.167949,97.4666667 L184.183333,114.666667 L182.198718,97.4666667 L174.747222,97.4666667 L172.716667,121.833333 L170.686111,97.4666667 L161.987391,97.4666667 L161.987391,158.65572 L107.520725,78.3890537 L53.0540579,158.65572 L53.0540579,97.4666667 L45.6277778,97.4666667 L43.7166667,108.933333 L41.8055556,97.4666667 L35.6679487,97.4666667 L33.6833333,114.666667 L31.6987179,97.4666667 L24.2472222,97.4666667 L22.2166667,121.833333 L20.1861111,97.4666667 L7.66206493,97.4666667 C7.3344184,100.766693 7.16666667,104.113756 7.16666667,107.5 C7.16666667,162.91257 52.0874301,207.833333 107.5,207.833333 C162.91257,207.833333 207.833333,162.91257 207.833333,107.5 C207.833333,104.113756 207.665582,100.766693 207.337935,97.4666667 L196.127778,97.4666667 L194.216667,108.933333 L192.305556,97.4666667 Z M107.5,215 C48.1293894,215 0,166.870611 0,107.5 C0,48.1293894 48.1293894,0 107.5,0 C166.870611,0 215,48.1293894 215,107.5 C215,166.870611 166.870611,215 107.5,215 Z M107.5,169.670833 C100.078674,169.670833 94.0625,163.65466 94.0625,156.233333 C94.0625,148.812007 100.078674,142.795833 107.5,142.795833 C114.921326,142.795833 120.9375,148.812007 120.9375,156.233333 C120.9375,163.65466 114.921326,169.670833 107.5,169.670833 Z M55.8,273.58 C54.7066612,275.006674 52.960012,275.72 50.56,275.72 C48.159988,275.72 46.3866724,275.040007 45.24,273.68 C44.0933276,272.319993 43.52,270.68001 43.52,268.76 C43.52,265.719985 44.9466524,263.333342 47.8,261.6 C50.6533476,259.866658 55.213302,259 61.48,259 L66.84,259 L66.84,263.8 L64.56,263.8 L68.32,278.56 L73.24,259 L77.36,259 L82.24,278.56 L86.04,263.8 L83.76,263.8 L83.76,259 L93.84,259 L93.84,263.8 L91.36,263.8 L85.12,287 L79.8,287 L75.28,270.8 L70.8,287 L65.48,287 L59.24,263.84 C55.23998,263.946667 52.4533412,264.379996 50.88,265.14 C49.3066588,265.900004 48.52,267.053326 48.52,268.6 C48.52,270.146674 49.1999932,270.92 50.56,270.92 C51.8133396,270.92 52.44,270.066675 52.44,268.36 L57.44,268.36 C57.44,270.413344 56.8933388,272.153326 55.8,273.58 Z M95.48,271.4 L95.48,267 L103.76,267 L103.76,282.6 L107.24,282.6 L107.24,287 L95.44,287 L95.44,282.6 L98.56,282.6 L98.56,271.4 L95.48,271.4 Z M99.14,264.16 C98.6199974,263.57333 98.36,262.866671 98.36,262.04 C98.36,261.213329 98.6399972,260.500003 99.2,259.9 C99.7600028,259.299997 100.459996,259 101.3,259 C102.140004,259 102.813331,259.29333 103.32,259.88 C103.826669,260.46667 104.08,261.173329 104.08,262 C104.08,262.826671 103.800003,263.539997 103.24,264.14 C102.679997,264.740003 101.986671,265.04 101.16,265.04 C100.333329,265.04 99.6600026,264.74667 99.14,264.16 Z M109.04,271.4 L109.04,267.4 L112.52,267 C113.400004,264.786656 113.973332,263.026673 114.24,261.72 L117.72,261.72 L117.72,267 L122.48,267 L122.48,271.4 L117.72,271.4 L117.72,281.28 C117.72,281.733336 117.793333,282.073332 117.94,282.3 C118.086667,282.526668 118.413331,282.64 118.92,282.64 C119.426669,282.64 120.30666,282.386669 121.56,281.88 L123.48,285.96 C121.773325,286.920005 119.953343,287.4 118.02,287.4 C116.086657,287.4 114.686671,286.893338 113.82,285.88 C112.953329,284.866662 112.52,283.546675 112.52,281.92 L112.52,271.4 L109.04,271.4 Z M143.48,284.72 C141.39999,286.506676 138.773349,287.4 135.6,287.4 C132.426651,287.4 129.980009,286.42001 128.26,284.46 C126.539991,282.49999 125.68,280.013348 125.68,277 C125.68,273.986652 126.539991,271.50001 128.26,269.54 C129.980009,267.57999 132.273319,266.6 135.14,266.6 C138.006681,266.6 140.466656,267.146661 142.52,268.24 L142.52,274.8 L137.92,274.8 L137.92,271.72 C137.199996,271.506666 136.386671,271.4 135.48,271.4 C134.039993,271.4 132.913337,271.919995 132.1,272.96 C131.286663,274.000005 130.88,275.346658 130.88,277 C130.88,278.653342 131.286663,279.999995 132.1,281.04 C132.913337,282.080005 133.939994,282.6 135.18,282.6 C136.420006,282.6 137.459996,282.480001 138.3,282.24 C139.140004,281.999999 139.726665,281.780001 140.06,281.58 C140.393335,281.379999 140.839997,281.080002 141.4,280.68 L143.48,284.72 Z M153.16,282.6 L156.64,282.6 L156.64,287 L144.88,287 L144.88,282.6 L147.96,282.6 L147.96,261.4 L144.88,261.4 L144.88,257 L153.16,257 L153.16,268.36 C155.453345,267.186661 157.519991,266.6 159.36,266.6 C161.866679,266.6 163.599995,267.333326 164.56,268.8 C165.520005,270.266674 166,272.29332 166,274.88 L166,282.8 L169.28,282.8 L169.28,286.28 C168.133328,286.893336 166.746675,287.2 165.12,287.2 C163.493325,287.2 162.36667,286.840004 161.74,286.12 C161.11333,285.399996 160.8,284.226675 160.8,282.6 L160.8,274.88 C160.8,273.706661 160.640002,272.833336 160.32,272.26 C159.999998,271.686664 159.253339,271.4 158.08,271.4 C156.906661,271.4 155.266677,272.199992 153.16,273.8 L153.16,282.6 Z" id="Combined-Shape-Copy"></path>
                    </g>
                </g>
            </g>
        </g>
    </g>
</svg>