<?xml version="1.0" encoding="UTF-8"?>
<svg width="174px" height="215px" viewBox="0 0 174 215" version="1.1" xmlns="http://www.w3.org/2000/svg" xmlns:xlink="http://www.w3.org/1999/xlink">
    <!-- Generator: Sketch 43.2 (39069) - http://www.bohemiancoding.com/sketch -->
    <title>logo-icon-font-light</title>
    <desc>Created with Sketch.</desc>
    <defs></defs>
    <g id="Web" stroke="none" stroke-width="1" fill="none" fill-rule="evenodd">
        <g id="logo-icon-font-light" transform="translate(-108.000000, -77.000000)" fill="#FFFFFF">
            <g transform="translate(108.000000, 77.000000)">
                <g>
                    <path d="M108.565678,129 L61.710152,25.9577943 L43.9065799,25.9577943 L90.7621059,129 L89.0997152,129 L65.25,129 L58.9830508,129 L0,0 L174,0 L114.832627,129 L108.565678,129 Z M111.699153,71.4008559 L133.264831,25.7631954 L90.3177966,25.7631954 L111.699153,71.4008559 Z" id="Combined-Shape-Copy-5"></path>
                    <path d="M44.82,185.96 L37.5,201.48 L30.22,185.96 L24.02,185.96 L29.42,197 L26.94,201.72 L19.46,185.96 L13.26,185.96 L26.06,214 L27.42,214 L32.14,203.72 L36.82,214 L38.18,214 L51.02,185.96 L44.82,185.96 Z M59.22,213.96 L59.22,185.96 L64.82,185.96 L64.82,213.96 L59.22,213.96 Z M74.42,185.96 L74.42,191.56 L82.22,191.56 L82.22,214 L87.82,214 L87.82,191.56 L95.58,191.56 L95.58,185.96 L74.42,185.96 Z M128.66,188.6 C126.18,186.68 123.06,185.52 119.7,185.52 C111.7,185.52 105.18,192.04 105.18,200.04 C105.18,208.04 111.7,214.56 119.7,214.56 C123.22,214.56 126.46,213.28 128.98,211.2 L125.38,207.08 C120.1,211.08 111.42,207.92 111.42,200.04 C111.42,192.52 119.62,189.24 125.06,192.76 L128.66,188.6 Z M155.14,196.72 L144.78,196.72 L144.78,186 L139.18,186 L139.18,214 L144.78,214 L144.78,202.32 L155.14,202.32 L155.14,214 L160.74,214 L160.74,186 L155.14,186 L155.14,196.72 Z" id="WITCH"></path>
                </g>
            </g>
        </g>
    </g>
</svg>