<?xml version="1.0" encoding="UTF-8"?>
<svg width="215px" height="215px" viewBox="0 0 215 215" version="1.1" xmlns="http://www.w3.org/2000/svg" xmlns:xlink="http://www.w3.org/1999/xlink">
    <!-- Generator: Sketch 43.2 (39069) - http://www.bohemiancoding.com/sketch -->
    <title>logo-no-text</title>
    <desc>Created with Sketch.</desc>
    <defs>
        <path d="M3.12250226e-13,91.5036687 C6.39737808,39.9231385 50.3850517,0 103.697274,0 C156.758808,0 200.58328,39.5485628 207.301811,90.7768086 L151.33282,90.202858 L151.424743,137.034516 L102.764036,65.982106 L52.5806938,137.87833 L53.0685972,93.7831735 L49.629703,90.643621 L3.12638804e-13,91.5036687 Z" id="path-1"></path>
    </defs>
    <g id="Web" stroke="none" stroke-width="1" fill="none" fill-rule="evenodd">
        <g id="Web-Copy" transform="translate(-613.000000, -159.000000)">
            <g id="logo-no-text" transform="translate(613.000000, 159.000000)">
                <g id="logo">
                    <g>
                        <g id="Path-2" transform="translate(4.603352, 2.402235)">
                            <mask id="mask-2" fill="white">
                                <use xlink:href="#path-1"></use>
                            </mask>
                            <use id="Mask" fill="#D17795" xlink:href="#path-1"></use>
                            <polygon id="Polygon-2" fill-opacity="0.3" fill="#FFFFFF" mask="url(#mask-2)" points="102.997923 -20 118.794824 -19.1284607 102.997923 123.488435 149.623942 -12.2194935 164.281935 -6.26593123 178.196023 1.26399673 102.499321 123.488435 203.127972 20.6693117 213.843193 32.3091444 223.212903 45.0570936 102.499321 123.488435 237.478558 73.2467975 242.201339 88.3463674 245.234378 103.873838 102.997923 123.488435 -39.2385321 103.873838 -36.2054926 88.3463674 -31.4827122 73.2467975 102.997923 123.488435 -17.2170566 45.0570936 -7.84734718 32.3091444 2.8678737 20.6693117 102.499321 123.488435 27.7998228 1.26399673 41.713911 -6.26593123 56.3719041 -12.2194935 102.499321 123.488435 87.2010219 -19.1284607"></polygon>
                        </g>
                        <g id="witch-logo-green" fill="#3C3C3C">
                            <path d="M104.633333,44.4333333 L96.0333333,44.4333333 L96.0333333,38.7 L104.633333,38.7 L104.633333,30.1 L110.366667,30.1 L110.366667,38.7 L118.966667,38.7 L118.966667,44.4333333 L110.366667,44.4333333 L110.366667,61.597982 L150.563723,121.833333 L150.520725,86 L205.52438,86 C195.682107,40.9190579 155.5327,7.16666667 107.5,7.16666667 C59.4672999,7.16666667 19.3178931,40.9190579 9.47562002,86 L64.5207245,86 L64.7930614,121.833333 L104.633333,61.6920256 L104.633333,44.4333333 Z M192.305556,97.4666667 L186.167949,97.4666667 L184.183333,114.666667 L182.198718,97.4666667 L174.747222,97.4666667 L172.716667,121.833333 L170.686111,97.4666667 L161.987391,97.4666667 L161.987391,158.65572 L107.520725,78.3890537 L53.0540579,158.65572 L53.0540579,97.4666667 L45.6277778,97.4666667 L43.7166667,108.933333 L41.8055556,97.4666667 L35.6679487,97.4666667 L33.6833333,114.666667 L31.6987179,97.4666667 L24.2472222,97.4666667 L22.2166667,121.833333 L20.1861111,97.4666667 L7.66206493,97.4666667 C7.3344184,100.766693 7.16666667,104.113756 7.16666667,107.5 C7.16666667,162.91257 52.0874301,207.833333 107.5,207.833333 C162.91257,207.833333 207.833333,162.91257 207.833333,107.5 C207.833333,104.113756 207.665582,100.766693 207.337935,97.4666667 L196.127778,97.4666667 L194.216667,108.933333 L192.305556,97.4666667 Z M107.5,215 C48.1293894,215 0,166.870611 0,107.5 C0,48.1293894 48.1293894,0 107.5,0 C166.870611,0 215,48.1293894 215,107.5 C215,166.870611 166.870611,215 107.5,215 Z M107.5,169.670833 C100.078674,169.670833 94.0625,163.65466 94.0625,156.233333 C94.0625,148.812007 100.078674,142.795833 107.5,142.795833 C114.921326,142.795833 120.9375,148.812007 120.9375,156.233333 C120.9375,163.65466 114.921326,169.670833 107.5,169.670833 Z" id="Combined-Shape-Copy"></path>
                        </g>
                    </g>
                </g>
            </g>
        </g>
    </g>
</svg>