<?xml version="1.0" encoding="UTF-8"?>
<svg width="183px" height="36px" viewBox="0 0 183 36" version="1.1" xmlns="http://www.w3.org/2000/svg" xmlns:xlink="http://www.w3.org/1999/xlink">
    <!-- Generator: Sketch 43.2 (39069) - http://www.bohemiancoding.com/sketch -->
    <title>logo-font</title>
    <desc>Created with Sketch.</desc>
    <defs></defs>
    <g id="Web" stroke="none" stroke-width="1" fill="none" fill-rule="evenodd">
        <g id="logo-font" transform="translate(-103.000000, -67.000000)" fill="#353535">
            <g transform="translate(103.000000, 67.000000)" id="logo-text">
                <g>
                    <path d="M57.3382138,35.2323944 L57.3382138,0.545086271 L64.2570536,0.545086271 L64.2570536,35.2323944 L57.3382138,35.2323944 Z M76.1179219,0.545086271 L76.1179219,7.4825479 L85.7548774,7.4825479 L85.7548774,35.2819477 L92.6737172,35.2819477 L92.6737172,7.4825479 L102.261252,7.4825479 L102.261252,0.545086271 L76.1179219,0.545086271 Z M143.131828,3.8156039 C140.06777,1.43704562 136.212988,0 132.061684,0 C122.177627,0 114.122121,8.07718747 114.122121,17.9878469 C114.122121,27.8985064 122.177627,35.9756939 132.061684,35.9756939 C136.410669,35.9756939 140.413712,34.3899884 143.52719,31.8132169 L139.079364,26.7092273 C132.555887,31.664557 121.831685,27.7498465 121.831685,17.9878469 C121.831685,8.67182704 131.962843,4.60845665 138.684002,8.96914682 L143.131828,3.8156039 Z M175.848056,13.8749233 L163.048202,13.8749233 L163.048202,0.594639568 L156.129363,0.594639568 L156.129363,35.2819477 L163.048202,35.2819477 L163.048202,20.8123849 L175.848056,20.8123849 L175.848056,35.2819477 L182.766896,35.2819477 L182.766896,0.594639568 L175.848056,0.594639568 L175.848056,13.8749233 Z" id="ITCH"></path>
                    <path d="M29.0886077,35.1940299 L16.5343453,7.51104921 L11.7641349,7.51104921 L24.3183973,35.1940299 L23.8729837,35.1940299 L17.4827965,35.1940299 L15.8036578,35.1940299 L0,0.537313433 L46.6207906,0.537313433 L30.7677464,35.1940299 L29.0886077,35.1940299 Z M29.928177,19.7196329 L35.7063894,7.45876892 L24.1993511,7.45876892 L29.928177,19.7196329 Z" id="Combined-Shape-Copy-5"></path>
                </g>
            </g>
        </g>
    </g>
</svg>